<?xml version="1.0" encoding="UTF-8" standalone="no"?> <svg xmlns:inkscape="http://www.inkscape.org/namespaces/inkscape" xmlns:rdf="http://www.w3.org/1999/02/22-rdf-syntax-ns#" xmlns="http://www.w3.org/2000/svg" xmlns:cc="http://creativecommons.org/ns#" xmlns:dc="http://purl.org/dc/elements/1.1/" xmlns:sodipodi="http://sodipodi.sourceforge.net/DTD/sodipodi-0.dtd" id="svg2" sodipodi:docname="_svgclean2.svg" viewBox="0 0 180 156" inkscape:version="0.48.3.1 r9886"><path id="path4" inkscape:connector-curvature="0" d="m0 80.2v-2.2l6.6-2.8-3-7.2 7.4-3.2 3 7.4 21.4-8.8 0.8-5.8 87.6-36.2 1-5.8c18.6-7.8 37.2-15.6 38.2-15.6 7 0 17 16.8 17 30 0 4.4-1.4 6.6-3 7.2l-37 15.4-4.6-3.6-26 10.8-0.2 4.4-7.4 3 2 5c3.6 1.4 5.6 3.2 7.2 6.8l35.2 75.6-3.2 1.4-37.2-65-3.2 53h-3.2l-3.6-53-36.8 65-3.2-1.4 36.4-78.8-1.4-4-7.4 3.2-3.4-3-32.4 13.4-4.6-3.4-19.4 8zm162-71.2c0 9.4 7.8 23.8 12.4 23.8 1.2 0 2.4-1.2 2.4-4.8 0-8-7.6-23.2-12.4-23.2-1.4 0-2.4 1-2.4 4.2z"></path><metadata id="metadata6"></metadata></svg> 